<?xml version="1.0" encoding="utf-8"?>
<!-- Generator: Adobe Illustrator 18.0.0, SVG Export Plug-In . SVG Version: 6.00 Build 0)  -->
<!DOCTYPE svg PUBLIC "-//W3C//DTD SVG 1.1//EN" "http://www.w3.org/Graphics/SVG/1.1/DTD/svg11.dtd">
<svg version="1.1" id="Layer_1" xmlns="http://www.w3.org/2000/svg" xmlns:xlink="http://www.w3.org/1999/xlink" x="0px" y="0px"
	 viewBox="0 0 128 128" enable-background="new 0 0 128 128" xml:space="preserve">
<rect fill="#FFFFFF" width="128" height="128"/>
<path fill="#3D5159" d="M128,55.2c-3.3,0.1-6.5,0.1-10,0.1c-1.9,0-3.5,0-5.3-0.1s-3.5-0.2-5.3-0.4c-0.6-0.1-1.1-0.1-1.7-0.2
	c-0.3-3.3-0.9-6.7-1.9-9.9c-1.3-4.5-3.3-9-5.9-12.9c-1.3-1.9-2.8-3.8-4.4-5.6c-1.6-1.7-3.3-3.3-5-4.7c-1.8-1.5-3.6-2.8-5.7-4
	c-1-0.6-2-1.1-3.2-1.6c-1.1-0.5-2.3-0.8-3.6-1c-1.3-0.2-2.6-0.2-4,0.1c-0.9,0.4-2.3,0.9-3.4,1.8c-2.2,1.7-3.5,4.3-4,6.6
	c-1.1,4.8,0,9.5,1.7,13.5c1.8,4.1,4.4,7.8,7.3,10.9c6,6.2,13.8,10.1,21.6,12.3c0.2,0,0.4,0.1,0.5,0.1c-0.4,3.4-0.9,7-1.8,10.4
	c-1.9,8-5.1,15.8-9.5,22.4c-2.1,3.3-4.7,6.4-7.5,8.3c-1.4,0.9-2.7,1.5-3.7,1.6c-0.6,0.1-0.9,0.2-1.4,0.1c-0.1,0-0.3,0.1-0.4,0.1
	h-0.1h-0.1c0,0-0.1-0.3-0.2-0.3c-0.3-0.2-0.6-0.5-0.9-0.6c-0.9-0.7-1.8-1.6-2.5-2.6c1.4-2.1,2.7-4.4,3.8-6.7c1.9-4,3.6-8.1,4.8-12.4
	c0.6-2.2,1.1-4.5,1.2-7c0-0.6,0-1.3-0.2-2.1c-0.2-0.7-0.4-1.7-1.3-2.6c-0.1-0.1-0.2-0.2-0.4-0.4L75,68l-0.1-0.1
	c-0.1,0-0.4-0.2-0.6-0.2c-0.7-0.3-1.3-0.3-1.9-0.2c-1.1,0.1-1.9,0.6-2.5,0.9c-1.2,0.8-2.1,1.8-3,2.7C66.1,72,65.4,73,64.8,74
	c-1.3,1.9-2.4,4-3.4,6.1c-1.9,4.3-3.3,8.9-3.5,14c-0.1,1.7,0.1,3.4,0.5,5.2c-1.3,1.2-2.7,2.2-4,3c-1.5,0.8-2.9,1.4-4.2,1.6
	c-1.3,0.1-2.3-0.1-3.3-0.6s-2-1.4-3.1-2.5c-4.6-5.3-7.6-11.5-8.9-18c-0.6-3.2-1-6.6-1-9.9c0-1.9,0.1-3.7,0.2-5.6
	c0.8-0.5,1.6-0.8,2.3-1.4c4.3-2.8,8.3-6.4,11.8-11c1.8-2.3,3.2-5,4.4-8c0.6-1.5,1-3.1,1.4-4.7c0.3-1.7,0.5-3.5,0-5.7
	c-0.3-1-0.7-2.1-1.5-3l-0.3-0.3c-0.1-0.1,0-0.1-0.2-0.2l-0.1-0.1c0,0-0.3-0.2-0.4-0.4c-0.2-0.1-0.3-0.2-0.5-0.3
	c-0.6-0.4-1.3-0.6-1.9-0.7c-1.4-0.3-2.6,0-3.6,0.4s-1.9,0.8-2.7,1.4c-3.1,2.1-5.4,4.8-7.5,7.7c-4.2,5.7-7.6,12.3-9.8,19.8
	c-0.4,1.3-0.7,2.6-1,4c-0.2,0-0.5,0-0.6-0.1s0,0-0.2-0.1l-0.1-0.2l0.1-0.1v-0.2L23,63.7l-0.5-0.4c-0.5-0.6-1-1.1-1.3-1.8
	c-0.6-1.3-1.1-2.7-1.3-4c-0.4-2.8-0.1-5.3,0.3-7.2c0.4-2,0.7-3.5,1.1-4.5c0.3-1,0.6-1.6,0.6-1.6s-0.4,0.5-0.9,1.4
	c-0.4,1-1.2,2.4-2,4.4c-0.7,1.9-1.7,4.5-1.9,7.9c0,1.7,0.1,3.5,0.7,5.4c0.3,0.9,0.8,1.9,1.4,2.9c0.2,0.2,0.3,0.5,0.5,0.6l0.6,0.6
	l0.1,0.2l0.1,0.1c0,0,0.3,0.2,0.2,0.2l0.3,0.3c0.2,0.2,0.6,0.6,1,0.7c0.6,0.4,1.3,0.6,2,0.8c-0.1,0.9-0.2,1.9-0.3,2.8
	c-0.3,4.1-0.1,8.3,0.7,12.5c0.8,4.2,2.3,8.4,4.4,12.3s4.8,7.5,8.2,10.7c0.9,0.9,1.9,1.7,3.1,2.4c1.1,0.7,2.4,1.4,3.8,1.9
	c1.4,0.5,2.9,0.7,4.4,0.8c1.5,0.1,3-0.2,4.3-0.5c2.7-0.7,5-2,7-3.5c1-0.7,1.9-1.6,2.7-2.4c0.7,0.9,1.6,1.8,2.4,2.5
	c0.6,0.5,1.1,0.9,1.8,1.3l0.2,0.1l0.3,0.2c0.2,0.1,0.5,0.3,0.6,0.4c0.4,0,0.8,0.2,1.2,0.4c1.6,0.6,3.4,0.9,5.1,0.9
	c3.4-0.1,6.3-1.3,8.7-2.7s4.5-3.1,6.2-4.9c1.9-1.8,3.4-3.7,4.9-5.7c5.7-7.9,9.5-16.9,11.4-26.2c0.7-3.5,1.2-7.2,1.3-10.9
	c0.3,0,0.5,0.1,0.7,0.1c3.8,0.4,7.7,0.5,11.3,0.3c3.2-0.1,6.6-0.2,9.7-0.3v-7H128z M40.8,44.3c1.5-2.7,3.2-5.3,5.3-7
	c0.5-0.4,1-0.7,1.5-0.9s0.8,0.1,1,0.1c0.1,0,0.2,0.5,0.3,0.5H49c0,0,0-0.5,0.1-0.4l0.1-0.1h0.1c0.3,0.3,0.5,0.6,0.6,1.1
	c0.2,0.9,0,2.1-0.5,3.2c-0.5,1.2-1.1,2.3-1.8,3.3c-1.5,2.1-3.2,4.2-4.7,6.1c-2.2,2.8-4.5,5.3-6.9,7.4C37,53,38.6,48.3,40.8,44.3z
	 M66.4,89.8c-0.3,0.4-0.5,0.7-0.7,1.1c0-2.9,0.5-6,1.4-8.9c0.6-1.9,1.4-3.8,2.3-5.6c0.5-0.8,1-1.7,1.6-2.4c0.6-0.7,1.2-1.4,1.8-1.8
	c0,0,0.1,0,0.1-0.1c0,0.3,0.1,0.6,0,1c-0.1,1.8-0.6,3.7-1.2,5.7C70.3,82.6,68.5,86.4,66.4,89.8z M91.9,51.7c-1.7-0.6-3.4-1.3-5-2
	c-3.3-1.6-6.5-3.5-9.2-5.9C75,41.3,72.6,38.3,71,35c-0.8-1.7-1.4-3.4-1.8-5.2c-0.4-1.8-0.4-3.6,0-5.3s1.1-3.2,2.3-3.9
	c1.1-0.8,2.6-1.1,4.3-0.7c1.7,0.3,3.3,1.1,4.9,2.1s3.2,2.4,4.5,3.7c1.5,1.5,2.8,3,3.9,4.5s2.2,3.3,3.1,5.1c1.8,3.5,2.9,7.4,3.4,11.3
	c0.3,2,0.5,4.1,0.6,6.2C94.7,52.5,93.3,52.1,91.9,51.7z"/>
</svg>
